<?xml version="1.0" encoding="UTF-8" standalone="no"?>
<!-- Uploaded to: SVG Repo, www.svgrepo.com, Generator: SVG Repo Mixer Tools -->

<svg
   fill="#000000"
   width="800px"
   height="800px"
   viewBox="0 0 100 100"
   enable-background="new 0 0 100 100"
   xml:space="preserve"
   version="1.1"
   id="svg4"
   sodipodi:docname="speech-to-text-service.svg"
   inkscape:version="1.4 (e7c3feb100, 2024-10-09)"
   xmlns:inkscape="http://www.inkscape.org/namespaces/inkscape"
   xmlns:sodipodi="http://sodipodi.sourceforge.net/DTD/sodipodi-0.dtd"
   xmlns="http://www.w3.org/2000/svg"
   xmlns:svg="http://www.w3.org/2000/svg"><defs
   id="defs4" /><sodipodi:namedview
   id="namedview4"
   pagecolor="#ffffff"
   bordercolor="#000000"
   borderopacity="0.25"
   inkscape:showpageshadow="2"
   inkscape:pageopacity="0.0"
   inkscape:pagecheckerboard="0"
   inkscape:deskcolor="#d1d1d1"
   inkscape:zoom="1.49"
   inkscape:cx="399.66443"
   inkscape:cy="400"
   inkscape:window-width="2560"
   inkscape:window-height="1403"
   inkscape:window-x="0"
   inkscape:window-y="0"
   inkscape:window-maximized="1"
   inkscape:current-layer="svg4" />
<path
   d="M66.3,59.5c-2.2,0-3.9-1.7-4-3.9c0-2.2,1.8-3.9,4-3.9c0,0,0,0,0,0c2.2,0,3.9,1.7,4,3.9  C70.3,57.7,68.5,59.5,66.3,59.5C66.3,59.5,66.3,59.5,66.3,59.5z"
   id="path1" />
<path
   d="M47.4,59.5c-2.2,0-3.9-1.7-4-3.9c0-2.2,1.8-3.9,4-3.9c0,0,0,0,0,0c2.2,0,3.9,1.7,4,3.9  C51.3,57.7,49.6,59.4,47.4,59.5z"
   id="path2" />
<path
   d="M56.8,59.5c-2.2,0-3.9-1.7-4-3.9c0-2.2,1.8-3.9,4-3.9c0,0,0,0,0,0c2.2,0,3.9,1.7,4,3.9  C60.8,57.7,59,59.5,56.8,59.5C56.8,59.5,56.8,59.5,56.8,59.5z"
   id="path3" />
<path
   d="M71.6,20.2H28.1c-4.4-0.1-8.1,3.4-8.3,7.8v44.4c0.2,4.4,3.8,7.9,8.2,7.8h24.4c-5.1-4.5-13.5-13.8-13.5-23.5  c0-9.6,7.7-17.3,17.3-17.3c9.6,0,17.3,7.7,17.3,17.3c0,9.8-8.5,19-13.6,23.5h11.8c4.4,0,8-3.4,8.2-7.8V28  C79.9,23.7,76.1,20.2,71.6,20.2z M47.3,33.5c-0.1,1.5-1.3,2.7-2.8,2.8H30.4c-1.5,0-2.8-1.3-2.8-2.8v-2.8c0.1-1.5,1.3-2.7,2.8-2.8  h14.1c1.5,0,2.8,1.3,2.8,2.8V33.5z"
   id="path4" />
<path
   style="fill:#ffffff;stroke-width:0.671141"
   d="m 216.22697,640.87781 c -23.87681,-2.52153 -44.68463,-18.75535 -53.24235,-41.53857 -4.57558,-12.18156 -4.29671,1.49186 -4.08624,-200.35539 0.17855,-171.24244 0.26284,-182.80555 1.36182,-186.81672 4.16976,-15.21916 12.89508,-28.35197 24.86225,-37.4211 5.38542,-4.08125 16.07477,-9.18826 23.26681,-11.11609 l 5.7047,-1.52915 179.5302,-0.2083 c 127.18755,-0.14757 181.42987,0.006 186.04589,0.52825 27.60032,3.11999 50.17487,21.61048 57.35081,46.97523 1.18476,4.18777 1.23417,11.85888 1.23417,191.61074 v 187.24832 l -1.84889,5.89386 c -6.9948,22.29785 -23.61564,38.65388 -45.46654,44.74214 -8.2152,2.28898 -18.13636,2.69792 -65.72524,2.70908 l -45.25544,0.0106 6.66484,-6.12614 c 35.90882,-33.0064 66.54292,-72.6232 83.22775,-107.63225 17.17699,-36.04171 22.2503,-70.17372 15.36544,-103.3749 -11.21109,-54.06377 -54.3468,-96.50658 -108.75274,-107.00584 -33.53916,-6.47239 -70.36608,-0.10967 -98.19032,16.96469 -10.97037,6.73198 -17.3099,11.69427 -26.3138,20.59726 -20.93506,20.70041 -33.3461,44.34167 -38.93263,74.16107 -1.78031,9.50281 -2.43076,28.15071 -1.34784,38.64104 5.52408,53.512 42.20879,114.34251 102.27111,169.58576 l 4.55475,4.18931 -98.51448,-0.0893 c -54.18297,-0.0491 -100.87678,-0.33874 -103.76403,-0.64365 z M 364.76961,288.45334 c 5.01767,-2.46433 9.16461,-6.70923 11.66766,-11.94327 l 2.08622,-4.36242 v -15.77181 c 0,-15.67498 -0.011,-15.7952 -1.78551,-19.58064 -2.3823,-5.0819 -6.3729,-9.27593 -11.10679,-11.673 l -3.88622,-1.96784 -60.0031,-0.18524 c -53.19772,-0.16423 -60.41903,-0.0643 -63.67038,0.88087 -7.79181,2.26514 -14.04673,8.31094 -16.31105,15.76573 -1.25386,4.12807 -1.3652,5.95629 -1.17038,19.21813 0.20797,14.15623 0.27469,14.78198 1.95647,18.34736 2.74524,5.81993 8.59219,10.91143 14.70179,12.80225 0.92282,0.2856 29.16108,0.46656 62.75168,0.40213 l 61.07383,-0.11713 z"
   id="path5"
   transform="scale(0.125)" /><path
   style="fill:#ffffff;stroke-width:0.671141"
   d="m 372.41732,474.84179 c -16.21673,-3.52813 -27.42741,-20.15023 -24.15979,-35.8218 1.31721,-6.3174 3.87037,-11.05393 8.40019,-15.58375 15.85843,-15.85843 42.27364,-10.90636 51.35468,9.62749 5.0913,11.51235 2.60059,23.25222 -6.94618,32.7405 -4.95141,4.92109 -9.97254,7.63091 -16.83577,9.08602 -5.24102,1.11117 -6.50688,1.10597 -11.81313,-0.0485 z"
   id="path6"
   transform="scale(0.125)" /><path
   style="fill:#ffffff;stroke-width:0.671141"
   d="m 447.484,474.82117 c -15.3194,-3.32789 -26.63819,-19.51792 -24.27383,-34.7205 2.29936,-14.78464 15.76382,-26.00671 31.20336,-26.00671 15.51267,0 28.465,11.1848 31.16983,26.91626 2.58972,15.06198 -9.57521,31.13652 -25.80729,34.10133 -4.96276,0.90645 -7.00468,0.85822 -12.29207,-0.29038 z"
   id="path7"
   transform="scale(0.125)" /><path
   style="fill:#ffffff;stroke-width:0.671141"
   d="m 525.83893,475.37558 c -7.83333,-1.30979 -15.49945,-5.90073 -20.23516,-12.11803 -4.85528,-6.37431 -6.22816,-10.53714 -6.25362,-18.96225 -0.0205,-6.774 0.0758,-7.25033 2.48528,-12.2965 5.35314,-11.21106 16.09045,-17.90484 28.72068,-17.90484 15.27604,0 28.31585,11.23931 30.9653,26.68973 1.52884,8.9155 -1.20933,17.10935 -8.22302,24.60701 -7.12442,7.61603 -17.99236,11.56785 -27.45946,9.98488 z"
   id="path8"
   transform="scale(0.125)" /></svg>
