<?xml version="1.0" encoding="UTF-8" standalone="no"?>
<svg
   version="1.0"
   width="1280.000000pt"
   height="1280.000000pt"
   viewBox="0 0 1280.000000 1280.000000"
   preserveAspectRatio="xMidYMid meet"
   id="svg1"
   sodipodi:docname="trigger-speech-to-text.svg"
   inkscape:version="1.4 (e7c3feb100, 2024-10-09)"
   xmlns:inkscape="http://www.inkscape.org/namespaces/inkscape"
   xmlns:sodipodi="http://sodipodi.sourceforge.net/DTD/sodipodi-0.dtd"
   xmlns="http://www.w3.org/2000/svg"
   xmlns:svg="http://www.w3.org/2000/svg">
  <defs
     id="defs1" />
  <sodipodi:namedview
     id="namedview1"
     pagecolor="#ffffff"
     bordercolor="#000000"
     borderopacity="0.25"
     inkscape:showpageshadow="2"
     inkscape:pageopacity="0.0"
     inkscape:pagecheckerboard="0"
     inkscape:deskcolor="#d1d1d1"
     inkscape:document-units="pt"
     inkscape:zoom="0.6984375"
     inkscape:cx="854.04922"
     inkscape:cy="853.33333"
     inkscape:window-width="2560"
     inkscape:window-height="1403"
     inkscape:window-x="0"
     inkscape:window-y="0"
     inkscape:window-maximized="1"
     inkscape:current-layer="svg1" />
  <g
     transform="translate(0.000000,1280.000000) scale(0.100000,-0.100000)"
     fill="#ffffff"
     stroke="none"
     id="g1">
    <path
       d="M5870 12793 c0 -4 -22 -133 -50 -287 -59 -338 -185 -1055 -200 -1147 -6 -36 -15 -70 -19 -77 -3 -6 -67 -23 -141 -37 -235 -46 -469 -109 -699 -189 -67 -23 -108 -33 -115 -27 -6 5 -227 268 -491 585 -383 459 -484 575 -501 573 -22 -4 -890 -503 -899 -517 -3 -5 112 -330 255 -723 143 -393 258 -721 254 -728 -3 -8 -42 -45 -87 -82 -113 -95 -395 -375 -497 -495 -47 -55 -91 -103 -99 -106 -7 -4 -335 111 -728 254 -392 144 -718 258 -723 255 -14 -9 -513 -877 -517 -899 -2 -17 108 -114 542 -476 300 -250 564 -471 586 -490 l40 -35 -56 -161 c-63 -184 -132 -446 -170 -644 -14 -74 -31 -138 -37 -141 -7 -4 -41 -13 -77 -19 -69 -11 -362 -63 -1027 -180 -221 -38 -404 -70 -408 -70 -3 0 -6 -238 -6 -530 0 -291 3 -530 6 -530 4 0 187 -32 408 -70 665 -117 958 -169 1027 -180 36 -6 70 -15 77 -19 6 -3 23 -67 37 -141 38 -198 107 -460 170 -644 l56 -161 -40 -35 c-22 -19 -286 -240 -586 -490 -434 -362 -544 -459 -542 -476 4 -22 503 -890 517 -899 5 -3 331 111 723 255 393 143 721 258 728 254 8 -3 52 -51 99 -106 102 -120 384 -400 497 -495 45 -37 84 -74 87 -82 4 -7 -111 -335 -254 -728 -143 -393 -258 -718 -255 -723 9 -14 877 -513 899 -517 17 -2 118 114 501 573 264 317 485 580 491 585 7 6 48 -4 115 -27 230 -80 464 -143 699 -189 74 -14 138 -31 141 -37 4 -7 13 -41 19 -77 11 -69 63 -362 180 -1027 38 -221 70 -404 70 -408 0 -3 239 -6 530 -6 333 0 530 4 530 10 0 5 34 202 75 437 42 235 101 572 131 748 31 176 59 323 63 327 3 4 67 19 141 33 235 46 502 118 704 190 l99 36 36 -40 c20 -22 241 -285 491 -585 362 -435 459 -545 476 -543 22 4 890 503 899 517 3 5 -112 332 -256 726 l-262 717 45 41 c24 23 105 96 179 164 75 67 194 186 265 264 71 78 147 162 170 186 l40 44 718 -262 c592 -215 721 -259 731 -248 30 31 516 890 512 902 -3 8 -267 233 -586 501 -320 268 -581 488 -581 490 0 2 17 53 38 112 75 210 149 487 192 715 15 78 27 118 37 122 13 5 1492 266 1507 266 3 0 6 239 6 530 0 292 -3 530 -6 530 -4 0 -187 32 -408 70 -666 117 -958 169 -1028 181 -37 6 -72 17 -78 24 -6 7 -21 68 -34 136 -45 231 -114 485 -188 692 -21 59 -38 110 -38 112 0 2 261 222 581 490 319 268 583 493 586 501 4 12 -482 871 -512 902 -10 11 -139 -33 -731 -248 l-718 -262 -40 44 c-23 24 -99 108 -170 186 -71 78 -190 197 -265 264 -74 68 -155 141 -179 164 l-45 41 262 717 c144 394 259 721 256 726 -9 14 -877 513 -899 517 -17 2 -114 -108 -476 -543 -250 -300 -471 -563 -491 -585 l-36 -40 -99 36 c-202 72 -469 144 -704 190 -74 14 -138 29 -141 33 -4 4 -32 151 -63 327 -30 176 -89 513 -131 748 -41 235 -75 432 -75 437 0 6 -197 10 -530 10 -291 0 -530 -3 -530 -7z m1000 -2627 c1347 -186 2446 -1002 2997 -2227 397 -879 433 -1930 98 -2839 -464 -1260 -1560 -2188 -2870 -2429 -266 -49 -345 -55 -695 -55 -350 0 -429 6 -695 55 -917 169 -1764 691 -2325 1434 -397 527 -635 1097 -738 1770 -24 159 -26 193 -26 525 0 332 2 366 26 525 14 94 38 224 53 290 249 1121 984 2064 2011 2578 430 216 921 352 1399 391 123 10 654 -3 765 -18z"
       id="path1" />
  </g>
  <path
     d="m 499.02818,510.40629 a 57.6,57.6 0 0 1 57.6,57.6 v 144 a 57.6,57.6 0 0 1 -57.6,57.6 57.6,57.6 0 0 1 -57.6,-57.6 v -144 a 57.6,57.6 0 0 1 57.6,-57.6 m 172.8,201.6 c 0,85.536 -62.208,156.672 -144,170.496 v 59.904 h -57.6 v -59.904 c -81.792,-13.824 -144,-84.96 -144,-170.496 h 57.6 a 115.2,115.2 0 0 0 115.2,115.2 115.2,115.2 0 0 0 115.2,-115.2 h 57.6 m 213.408,-132.192 -122.112,122.4 29.088,-105.408 h -120.384 a 57.6,57.6 0 0 1 -57.6,-57.6 v -115.2 a 57.6,57.6 0 0 1 57.6,-57.6 h 172.8 a 57.6,57.6 0 0 1 57.6,57.6 v 115.2 c 0,15.84 -6.336,30.24 -16.992,40.608 z"
     fill=""
     id="path1-3"
     style="overflow:hidden;fill:#ffffff;stroke-width:0.675" />
</svg>
